<?xml version="1.0" standalone="no"?>
<!DOCTYPE svg PUBLIC "-//W3C//DTD SVG 20010904//EN"
 "http://www.w3.org/TR/2001/REC-SVG-20010904/DTD/svg10.dtd">
<svg version="1.0" xmlns="http://www.w3.org/2000/svg"
 width="700.000000pt" height="550.000000pt" viewBox="0 0 700.000000 550.000000"
 preserveAspectRatio="xMidYMid meet">

<g transform="translate(0.000000,550.000000) scale(0.100000,-0.100000)"
fill="#000000" stroke="none">
<path d="M277 5373 c-12 -11 -8 -2526 3 -2559 13 -37 2064 -2600 2103 -2629
28 -20 39 -20 1030 -23 551 -1 1012 0 1025 3 15 4 22 13 22 28 0 14 -715 916
-2065 2605 -2107 2635 -2085 2609 -2118 2575z"/>
<path d="M5211 3681 c-749 -936 -1361 -1707 -1361 -1714 0 -37 -3 -37 1027
-37 968 0 1005 1 1041 19 28 14 119 121 366 430 198 249 331 424 337 445 5 19
8 547 7 1292 l-3 1259 -27 3 c-25 3 -132 -128 -1387 -1697z"/>
</g>
</svg>
